<svg width="253" height="62" viewBox="0 0 253 62" fill="none" xmlns="http://www.w3.org/2000/svg">
<path d="M36.8215 5.8125L31 11.6366L25.1772 5.8125L0 31L25.1772 56.1875L31 50.3634L36.8215 56.1875L62 31L36.8215 5.8125ZM25.1772 52.3512L3.83496 31L25.1772 9.64746L46.5207 31L42.6172 34.9047L27.0953 19.3763L25.1772 17.4582L23.259 19.3763L19.3815 23.2565L11.6444 31L29.0819 48.4452L25.1772 52.3512ZM40.7017 36.8241L36.8228 40.703L21.3009 25.1759L25.1785 21.2957L40.7017 36.8241ZM32.9155 48.4452L15.478 31L19.3827 27.094L34.9047 42.6224L36.8228 44.5392L38.741 42.6224L48.4401 32.9194L50.3556 31L48.4401 29.0819L32.9181 13.5535L36.8228 9.64746L58.165 31L36.8215 52.3512L32.9155 48.4452Z" fill="#343434"/>
<path d="M84.952 39.12C83.752 39.12 82.664 38.88 81.688 38.4C80.712 37.92 79.864 37.272 79.144 36.456C78.44 35.624 77.896 34.696 77.512 33.672C77.128 32.632 76.936 31.568 76.936 30.48C76.936 29.344 77.136 28.264 77.536 27.24C77.952 26.2 78.52 25.28 79.24 24.48C79.976 23.664 80.832 23.024 81.808 22.56C82.784 22.08 83.848 21.84 85 21.84C86.2 21.84 87.288 22.088 88.264 22.584C89.24 23.08 90.08 23.744 90.784 24.576C91.488 25.408 92.032 26.336 92.416 27.36C92.8 28.384 92.992 29.432 92.992 30.504C92.992 31.64 92.792 32.728 92.392 33.768C91.992 34.792 91.424 35.712 90.688 36.528C89.968 37.328 89.12 37.96 88.144 38.424C87.168 38.888 86.104 39.12 84.952 39.12ZM79.12 30.48C79.12 31.344 79.256 32.184 79.528 33C79.816 33.8 80.216 34.512 80.728 35.136C81.24 35.76 81.856 36.256 82.576 36.624C83.296 36.992 84.096 37.176 84.976 37.176C85.888 37.176 86.704 36.984 87.424 36.6C88.144 36.216 88.752 35.704 89.248 35.064C89.76 34.424 90.144 33.704 90.4 32.904C90.672 32.104 90.808 31.296 90.808 30.48C90.808 29.616 90.664 28.784 90.376 27.984C90.104 27.184 89.704 26.472 89.176 25.848C88.664 25.208 88.048 24.712 87.328 24.36C86.624 23.992 85.84 23.808 84.976 23.808C84.064 23.808 83.248 24 82.528 24.384C81.808 24.752 81.192 25.256 80.68 25.896C80.184 26.536 79.8 27.256 79.528 28.056C79.256 28.84 79.12 29.648 79.12 30.48ZM102.905 39.12C101.705 39.12 100.617 38.88 99.6411 38.4C98.6651 37.92 97.8171 37.272 97.0971 36.456C96.3931 35.624 95.8491 34.696 95.4651 33.672C95.0811 32.632 94.8891 31.568 94.8891 30.48C94.8891 29.344 95.0891 28.264 95.4891 27.24C95.9051 26.2 96.4731 25.28 97.1931 24.48C97.9291 23.664 98.7851 23.024 99.7611 22.56C100.737 22.08 101.801 21.84 102.953 21.84C104.153 21.84 105.241 22.088 106.217 22.584C107.193 23.08 108.033 23.744 108.737 24.576C109.441 25.408 109.985 26.336 110.369 27.36C110.753 28.384 110.945 29.432 110.945 30.504C110.945 31.64 110.745 32.728 110.345 33.768C109.945 34.792 109.377 35.712 108.641 36.528C107.921 37.328 107.073 37.96 106.097 38.424C105.121 38.888 104.057 39.12 102.905 39.12ZM97.0731 30.48C97.0731 31.344 97.2091 32.184 97.4811 33C97.7691 33.8 98.1691 34.512 98.6811 35.136C99.1931 35.76 99.8091 36.256 100.529 36.624C101.249 36.992 102.049 37.176 102.929 37.176C103.841 37.176 104.657 36.984 105.377 36.6C106.097 36.216 106.705 35.704 107.201 35.064C107.713 34.424 108.097 33.704 108.353 32.904C108.625 32.104 108.761 31.296 108.761 30.48C108.761 29.616 108.617 28.784 108.329 27.984C108.057 27.184 107.657 26.472 107.129 25.848C106.617 25.208 106.001 24.712 105.281 24.36C104.577 23.992 103.793 23.808 102.929 23.808C102.017 23.808 101.201 24 100.481 24.384C99.7611 24.752 99.1451 25.256 98.6331 25.896C98.1371 26.536 97.7531 27.256 97.4811 28.056C97.2091 28.84 97.0731 29.648 97.0731 30.48ZM120.858 39.12C119.658 39.12 118.57 38.88 117.594 38.4C116.618 37.92 115.77 37.272 115.05 36.456C114.346 35.624 113.802 34.696 113.418 33.672C113.034 32.632 112.842 31.568 112.842 30.48C112.842 29.344 113.042 28.264 113.442 27.24C113.858 26.2 114.426 25.28 115.146 24.48C115.882 23.664 116.738 23.024 117.714 22.56C118.69 22.08 119.754 21.84 120.906 21.84C122.106 21.84 123.194 22.088 124.17 22.584C125.146 23.08 125.986 23.744 126.69 24.576C127.394 25.408 127.938 26.336 128.322 27.36C128.706 28.384 128.898 29.432 128.898 30.504C128.898 31.64 128.698 32.728 128.298 33.768C127.898 34.792 127.33 35.712 126.594 36.528C125.874 37.328 125.026 37.96 124.05 38.424C123.074 38.888 122.01 39.12 120.858 39.12ZM115.026 30.48C115.026 31.344 115.162 32.184 115.434 33C115.722 33.8 116.122 34.512 116.634 35.136C117.146 35.76 117.762 36.256 118.482 36.624C119.202 36.992 120.002 37.176 120.882 37.176C121.794 37.176 122.61 36.984 123.33 36.6C124.05 36.216 124.658 35.704 125.154 35.064C125.666 34.424 126.05 33.704 126.306 32.904C126.578 32.104 126.714 31.296 126.714 30.48C126.714 29.616 126.57 28.784 126.282 27.984C126.01 27.184 125.61 26.472 125.082 25.848C124.57 25.208 123.954 24.712 123.234 24.36C122.53 23.992 121.746 23.808 120.882 23.808C119.97 23.808 119.154 24 118.434 24.384C117.714 24.752 117.098 25.256 116.586 25.896C116.09 26.536 115.706 27.256 115.434 28.056C115.162 28.84 115.026 29.648 115.026 30.48ZM139.17 21.48L138.69 24.24H139.41V26.976H137.418V24.24L138.138 21.48H139.17ZM142.482 21.48L142.002 24.24H142.722V26.976H140.73V24.24L141.45 21.48H142.482ZM146.243 39V21.96H159.395V39H157.235V23.88H148.403V39H146.243ZM162.15 35.376C162.15 34.576 162.374 33.888 162.822 33.312C163.286 32.72 163.918 32.264 164.718 31.944C165.518 31.624 166.446 31.464 167.502 31.464C168.062 31.464 168.654 31.512 169.278 31.608C169.902 31.688 170.454 31.816 170.934 31.992V31.08C170.934 30.12 170.646 29.368 170.07 28.824C169.494 28.264 168.678 27.984 167.622 27.984C166.934 27.984 166.27 28.112 165.63 28.368C165.006 28.608 164.342 28.96 163.638 29.424L162.87 27.936C163.686 27.376 164.502 26.96 165.318 26.688C166.134 26.4 166.982 26.256 167.862 26.256C169.462 26.256 170.726 26.704 171.654 27.6C172.582 28.48 173.046 29.712 173.046 31.296V36.6C173.046 36.856 173.094 37.048 173.19 37.176C173.302 37.288 173.478 37.352 173.718 37.368V39C173.51 39.032 173.326 39.056 173.166 39.072C173.022 39.088 172.902 39.096 172.806 39.096C172.31 39.096 171.934 38.96 171.678 38.688C171.438 38.416 171.302 38.128 171.27 37.824L171.222 37.032C170.678 37.736 169.966 38.28 169.086 38.664C168.206 39.048 167.334 39.24 166.47 39.24C165.638 39.24 164.894 39.072 164.238 38.736C163.582 38.384 163.07 37.92 162.702 37.344C162.334 36.752 162.15 36.096 162.15 35.376ZM170.31 36.264C170.502 36.04 170.654 35.816 170.766 35.592C170.878 35.352 170.934 35.152 170.934 34.992V33.432C170.438 33.24 169.918 33.096 169.374 33C168.83 32.888 168.294 32.832 167.766 32.832C166.694 32.832 165.822 33.048 165.15 33.48C164.494 33.896 164.166 34.472 164.166 35.208C164.166 35.608 164.27 36 164.478 36.384C164.702 36.752 165.022 37.056 165.438 37.296C165.87 37.536 166.398 37.656 167.022 37.656C167.678 37.656 168.302 37.528 168.894 37.272C169.486 37 169.958 36.664 170.31 36.264ZM183.167 39.24C182.143 39.24 181.231 38.984 180.431 38.472C179.631 37.96 178.999 37.312 178.535 36.528V44.112H176.423V26.472H178.295V28.824C178.791 28.056 179.439 27.44 180.239 26.976C181.039 26.496 181.911 26.256 182.855 26.256C183.719 26.256 184.511 26.432 185.231 26.784C185.951 27.136 186.575 27.616 187.103 28.224C187.631 28.832 188.039 29.528 188.327 30.312C188.631 31.08 188.783 31.888 188.783 32.736C188.783 33.92 188.543 35.008 188.063 36C187.599 36.992 186.943 37.784 186.095 38.376C185.247 38.952 184.271 39.24 183.167 39.24ZM182.519 37.416C183.143 37.416 183.703 37.288 184.199 37.032C184.711 36.76 185.143 36.408 185.495 35.976C185.863 35.528 186.143 35.024 186.335 34.464C186.527 33.904 186.623 33.328 186.623 32.736C186.623 32.112 186.511 31.52 186.287 30.96C186.079 30.4 185.775 29.904 185.375 29.472C184.991 29.04 184.535 28.704 184.007 28.464C183.495 28.208 182.935 28.08 182.327 28.08C181.943 28.08 181.543 28.152 181.127 28.296C180.727 28.44 180.343 28.648 179.975 28.92C179.607 29.176 179.295 29.472 179.039 29.808C178.783 30.144 178.615 30.504 178.535 30.888V34.464C178.775 35.008 179.095 35.504 179.495 35.952C179.895 36.4 180.359 36.76 180.887 37.032C181.415 37.288 181.959 37.416 182.519 37.416ZM194.424 39V28.344H190.104V26.472H200.856V28.344H196.536V39H194.424ZM202.953 39V26.472H205.065V31.656H211.593V26.472H213.705V39H211.593V33.528H205.065V39H202.953ZM222.654 39.24C221.71 39.24 220.846 39.072 220.062 38.736C219.294 38.384 218.622 37.912 218.046 37.32C217.486 36.712 217.046 36.016 216.726 35.232C216.422 34.448 216.27 33.616 216.27 32.736C216.27 31.552 216.542 30.472 217.086 29.496C217.63 28.52 218.382 27.736 219.342 27.144C220.318 26.552 221.43 26.256 222.678 26.256C223.942 26.256 225.038 26.56 225.966 27.168C226.91 27.76 227.638 28.544 228.15 29.52C228.678 30.48 228.942 31.52 228.942 32.64C228.942 32.8 228.934 32.96 228.918 33.12C228.918 33.264 228.91 33.376 228.894 33.456H218.502C218.566 34.272 218.79 35 219.174 35.64C219.574 36.264 220.086 36.76 220.71 37.128C221.334 37.48 222.006 37.656 222.726 37.656C223.494 37.656 224.214 37.464 224.886 37.08C225.574 36.696 226.046 36.192 226.302 35.568L228.126 36.072C227.854 36.68 227.446 37.224 226.902 37.704C226.374 38.184 225.742 38.56 225.006 38.832C224.286 39.104 223.502 39.24 222.654 39.24ZM218.43 31.992H226.974C226.91 31.176 226.678 30.456 226.278 29.832C225.878 29.208 225.366 28.72 224.742 28.368C224.118 28.016 223.43 27.84 222.678 27.84C221.942 27.84 221.262 28.016 220.638 28.368C220.014 28.72 219.502 29.208 219.102 29.832C218.718 30.456 218.494 31.176 218.43 31.992ZM238.034 39.24C237.01 39.24 236.098 38.984 235.298 38.472C234.498 37.96 233.866 37.312 233.402 36.528V44.112H231.29V26.472H233.162V28.824C233.658 28.056 234.306 27.44 235.106 26.976C235.906 26.496 236.778 26.256 237.722 26.256C238.586 26.256 239.378 26.432 240.098 26.784C240.818 27.136 241.442 27.616 241.97 28.224C242.498 28.832 242.906 29.528 243.194 30.312C243.498 31.08 243.65 31.888 243.65 32.736C243.65 33.92 243.41 35.008 242.93 36C242.466 36.992 241.81 37.784 240.962 38.376C240.114 38.952 239.138 39.24 238.034 39.24ZM237.386 37.416C238.01 37.416 238.57 37.288 239.066 37.032C239.578 36.76 240.01 36.408 240.362 35.976C240.73 35.528 241.01 35.024 241.202 34.464C241.394 33.904 241.49 33.328 241.49 32.736C241.49 32.112 241.378 31.52 241.154 30.96C240.946 30.4 240.642 29.904 240.242 29.472C239.858 29.04 239.402 28.704 238.874 28.464C238.362 28.208 237.802 28.08 237.194 28.08C236.81 28.08 236.41 28.152 235.994 28.296C235.594 28.44 235.21 28.648 234.842 28.92C234.474 29.176 234.162 29.472 233.906 29.808C233.65 30.144 233.482 30.504 233.402 30.888V34.464C233.642 35.008 233.962 35.504 234.362 35.952C234.762 36.4 235.226 36.76 235.754 37.032C236.282 37.288 236.826 37.416 237.386 37.416ZM245.751 26.976L246.231 24.216H245.511V21.48H247.503V24.216L246.783 26.976H245.751ZM249.063 26.976L249.543 24.216H248.823V21.48H250.815V24.216L250.095 26.976H249.063Z" fill="#343434"/>
</svg>
